#!OML:ASF I:\salsa\salsa 7_09\Patient 1\Session 1\dancerfemale.ASF
:FULLY-SPECIFIED
:DEGREES
1108
root -3.62355 15.8825 3.11523 -171.607 -134.595 -167.497
lowerback -1.10923 2.94731 -8.28164
upperback -14.4439 1.99261 -8.07605
thorax -15.5926 1.06846 -4.75179
lowerneck -5.3492 13.689 -6.6875
upperneck 0.659706 18.5784 5.82658
head -0.12771 9.36113 3.03862
rclavicle 3.45885e-014 4.29375e-014
rhumerus 63.0164 -17.7722 -40.1662
rradius 92.9331
rwrist -38.9428
rhand -10.5273 54.5923
rfingers 7.12502
rthumb 15.4758 25.1917
lclavicle 3.45885e-014 4.29375e-014
lhumerus -42.5865 -30.6416 106.423
lradius 121.322
lwrist -19.3949
lhand -10.4068 46.3256
lfingers 7.12502
lthumb 15.5919 435.717
rfemur -43.0096 -20.589 32.4196
rtibia 52.0932
rfoot -23.4271 -13.0268
rtoes -7.47445
lfemur -13.0958 22.4885 -29.7865
ltibia 44.5479
lfoot -3.0029 16.5562
ltoes -35.9809
1109
root -3.64249 15.8472 3.16645 -171.56 -129.161 -168.905
lowerback -1.07797 2.67293 -6.60206
upperback -14.5378 1.71845 -7.66536
thorax -15.6192 0.738553 -5.16177
lowerneck -5.25696 13.4078 -6.86667
upperneck 0.585405 18.2123 6.1166
head -0.189139 9.18221 3.15325
rclavicle -1.70955e-014 -2.06736e-014
rhumerus 63.0653 -18.893 -42.4331
rradius 95.1079
rwrist -40.4499
rhand -11.6791 55.0723
rfingers 7.12502
rthumb 14.3662 25.5894
lclavicle -1.70955e-014 -2.06736e-014
lhumerus -43.0459 -30.3656 107.271
lradius 120.715
lwrist -20.8244
lhand -8.96482 46.5757
lfingers 7.12502
lthumb 16.9803 435.853
rfemur -39.8798 -15.0011 31.2935
rtibia 50.9367
rfoot -22.4953 -10.2661
rtoes -12.4241
lfemur -15.515 22.3869 -28.4912
ltibia 50.3862
lfoot 3.41714 15.051
ltoes -30.8232
1110
root -3.6525 15.7812 3.21009 -171.655 -123.554 -170.156
lowerback -0.810667 2.43869 -5.40181
upperback -14.4667 1.47801 -7.17441
thorax -15.6383 0.496974 -5.22879
lowerneck -5.45542 12.9495 -8.52255
upperneck 0.277558 17.7307 7.92923
head -0.563254 8.97339 4.00534
rclavicle -8.15017e-014 2.22639e-014
rhumerus 63.183 -20.2574 -44.6218
rradius 97.1043
rwrist -43.2123
rhand -12.3467 55.7341
rfingers 7.12502
rthumb 13.7228 26.2066
lclavicle -8.15017e-014 2.22639e-014
lhumerus -43.3231 -30.0832 108.121
lradius 120.043
lwrist -22.6542
lhand -8.14679 46.612
lfingers 7.12502
lthumb 17.7676 435.82
rfemur -37.2179 -9.46444 30.2937
rtibia 49.9488
rfoot -22.4957 -7.22963
rtoes -11.0355
lfemur -17.8407 22.3598 -27.1236
ltibia 56.3152
lfoot 7.7092 11.2594
ltoes -31.2404
1111
root -3.63896 15.657 3.24828 -171.398 -117.793 -171.825
lowerback -0.353779 2.17831 -4.34777
upperback -14.2063 1.23244 -6.5514
thorax -15.5569 0.295387 -5.06127
lowerneck -6.30654 12.1709 -11.6602
upperneck 0.151143 17.0134 12.1456
head -0.989376 8.68971 5.32982
rclavicle -9.93923e-014 5.08889e-014
rhumerus 63.3792 -21.756 -47.1064
rradius 99.009
rwrist -46.392
rhand -12.7179 56.4494
rfingers 7.12502
rthumb 13.3651 26.8981
lclavicle -9.93923e-014 5.08889e-014
lhumerus -43.3446 -29.7832 108.714
lradius 119.336
lwrist -24.647
lhand -7.91464 46.404
lfingers 7.12502
lthumb 17.991 435.592
rfemur -35.1549 -4.42549 29.921
rtibia 49.2072
rfoot -23.0678 -4.25216
rtoes -1.50635
lfemur -19.9603 21.1639 -25.4877
ltibia 62.0257
lfoot 12.2699 6.39324
ltoes -30.9848
1112
root -3.64281 15.6323 3.30277 -170.681 -112.107 -173.818
lowerback 0.559884 1.75136 -3.58496
upperback -14.1162 0.701016 -5.83825
thorax -16.0339 -0.00995972 -4.63412
lowerneck -6.58228 11.4708 -11.3715
upperneck 0.521008 16.0522 12.7325
head -0.747615 8.22809 5.54599
rclavicle 4.45278e-014 3.65764e-014
rhumerus 63.1009 -22.5201 -50.2556
rradius 100.921
rwrist -48.8847
rhand -12.9536 57.1827
rfingers 7.12502
rthumb 13.1379 27.6166
lclavicle 4.45278e-014 3.65764e-014
lhumerus -43.9313 -28.9766 109.171
lradius 118.765
lwrist -26.4332
lhand -7.51444 46.2202
lfingers 7.12502
lthumb 18.376 435.372
rfemur -33.1807 -2.42904 31.0002
rtibia 48.1571
rfoot -22.2967 -3.29957
rtoes -10.6111
lfemur -22.4283 18.7879 -24.3026
ltibia 66.6553
lfoot 15.2971 1.50631
ltoes -27.8729
1113
root -3.6479 15.6427 3.37035 -171.313 -106.066 -174.191
lowerback 1.32474 1.4185 -3.58547
upperback -14.1689 0.195645 -5.30684
thorax -16.6275 -0.228529 -3.98186
lowerneck -5.10003 10.7549 -10.4504
upperneck -0.0877546 14.9412 12.6086
head -0.950373 7.61907 5.31403
rclavicle 2.38542e-015 -4.29375e-014
rhumerus 62.6632 -22.6487 -53.6801
rradius 102.117
rwrist -50.3913
rhand -13.3294 57.8325
rfingers 7.12502
rthumb 12.7757 28.2434
lclavicle 2.38542e-015 -4.29375e-014
lhumerus -45.2339 -27.7696 109.801
lradius 118.45
lwrist -27.7169
lhand -6.51594 46.2577
lfingers 7.12502
lthumb 19.3363 435.316
rfemur -31.034 -0.709285 30.9634
rtibia 46.9347
rfoot -21.6753 -1.18772
rtoes -9.78707
lfemur -24.167 15.9286 -23.9057
ltibia 70.1234
lfoot 16.4443 -0.0452388
ltoes -24.4529
1114
root -3.6539 15.6763 3.43609 -170.691 -99.9657 -175.548
lowerback 1.97895 1.10146 -3.69036
upperback -14.3062 -0.268807 -4.58312
thorax -17.2486 -0.387941 -3.04214
lowerneck -2.75248 9.88948 -9.87937
upperneck -1.57077 13.6733 12.3915
head -1.56257 6.88825 5.04316
rclavicle -4.77083e-015 -7.95139e-015
rhumerus 61.679 -22.9714 -56.8746
rradius 103.358
rwrist -51.9767
rhand -13.8658 58.3419
rfingers 7.12502
rthumb 12.2585 28.7212
lclavicle -4.77083e-015 -7.95139e-015
lhumerus -46.7919 -26.2881 110.575
lradius 118.299
lwrist -28.2226
lhand -5.92497 46.4219
lfingers 7.12502
lthumb 19.9045 435.423
rfemur -29.018 1.28816 30.9988
rtibia 45.5582
rfoot -20.8991 0.97608
rtoes -4.33234
lfemur -26.3325 13.5452 -23.4936
ltibia 72.7348
lfoot 14.4955 1.40489
ltoes -27.7679
1115
root -3.67263 15.7237 3.51836 -149.905 -93.4625 -196.644
lowerback 1.81557 0.654601 -2.67248
upperback -13.9514 -0.677777 -3.94171
thorax -16.6542 -0.655954 -2.77944
lowerneck -4.03915 8.38784 -10.3833
upperneck -1.18048 11.7487 14.4739
head -1.17544 5.97175 5.92125
rclavicle 3.18055e-015 -1.74931e-014
rhumerus 61.6629 -22.8019 -62.0556
rradius 104.536
rwrist -52.6879
rhand -14.456 59.2086
rfingers 7.12502
rthumb 11.6894 29.5547
lclavicle 3.18055e-015 -1.74931e-014
lhumerus -47.017 -24.9562 109.058
lradius 118.39
lwrist -27.9702
lhand -5.05246 46.9804
lfingers 7.12502
lthumb 20.743 435.892
rfemur -27.4974 3.88736 31.8841
rtibia 44.4956
rfoot -19.8978 3.30504
rtoes 2.56578
lfemur -28.4791 12.4103 -21.7377
ltibia 74.8016
lfoot 12.8459 2.50333
ltoes -25.2905
1116
root -3.68903 15.7243 3.61752 -199.148 -85.6196 -147.435
lowerback 1.48928 0.357968 -2.15932
upperback -13.8765 -0.972987 -3.23541
thorax -16.3237 -0.813896 -2.20235
lowerneck -4.32838 6.56168 -10.848
upperneck -0.807105 9.26943 15.7517
head -0.783792 4.74697 6.50985
rclavicle -3.18055e-015 6.36111e-015
rhumerus 60.728 -21.9273 -66.6779
rradius 105.824
rwrist -53.9585
rhand -14.8759 60.2614
rfingers 7.12502
rthumb 11.2845 30.5849
lclavicle -3.18055e-015 6.36111e-015
lhumerus -48.2128 -22.9074 107.857
lradius 118.759
lwrist -28.0246
lhand -3.21462 47.9777
lfingers 7.12502
lthumb 22.508 436.686
rfemur -26.585 6.26892 32.2337
rtibia 43.817
rfoot -19.9488 5.09341
rtoes -0.745772
lfemur -30.5751 10.6119 -20.3964
ltibia 76.4763
lfoot 10.1758 2.79566
ltoes -23.118
1117
root -3.70569 15.6717 3.73732 -183.615 -78.618 -163.032
lowerback 1.42525 0.220178 -1.79162
upperback -13.9074 -1.13077 -2.74566
thorax -16.3095 -0.918131 -1.8205
lowerneck -3.3692 4.54019 -11.487
upperneck -1.1135 6.48133 16.6933
head -0.699326 3.30253 6.95939
rclavicle 3.97569e-016 -2.54444e-014
rhumerus 58.7416 -21.2293 -70.4308
rradius 107.548
rwrist -56.3478
rhand -15.3178 61.4819
rfingers 7.12502
rthumb 10.8583 31.7826
lclavicle 3.97569e-016 -2.54444e-014
lhumerus -50.0086 -20.746 106.595
lradius 119.304
lwrist -27.7712
lhand -1.6941 48.9135
lfingers 7.12502
lthumb 23.9668 437.438
rfemur -26.0207 7.61231 32.0918
rtibia 43.4232
rfoot -18.9751 8.88856
rtoes -1.09734
lfemur -32.2446 8.65517 -19.1502
ltibia 77.8099
lfoot 5.48642 5.11215
ltoes -24.7826
1118
root -3.75263 15.6905 3.85201 -179.311 -71.2647 -167.579
lowerback 1.02145 0.185003 -1.56843
upperback -13.4973 -1.11984 -2.49689
thorax -15.5109 -0.926707 -1.65649
lowerneck -2.55934 2.22868 -12.1467
upperneck -1.89856 3.31842 17.9336
head -0.625362 1.65246 7.51431
rclavicle 5.40694e-014 3.65764e-014
rhumerus 57.0235 -20.8829 -74.2295
rradius 108.999
rwrist -58.9284
rhand -15.8307 63.2345
rfingers 7.12502
rthumb 10.3635 33.5098
lclavicle 5.40694e-014 3.65764e-014
lhumerus -51.2171 -18.8775 104.637
lradius 119.996
lwrist -26.554
lhand -0.308729 48.7605
lfingers 7.12502
lthumb 25.2946 437.103
rfemur -25.2926 7.93925 31.6743
rtibia 43.0227
rfoot -17.5663 13.9741
rtoes 0.936563
lfemur -33.178 7.43714 -17.9269
ltibia 78.209
lfoot 1.24162 6.99809
ltoes -22.3197
1119
root -3.81887 15.7477 3.96022 -177.202 -63.6908 -170.006
lowerback 1.16764 0.202838 -1.84571
upperback -13.4269 -1.13147 -2.08653
thorax -15.5007 -0.883457 -1.03287
lowerneck -1.03573 -0.0770531 -13.1012
upperneck -2.48756 0.0550958 18.9928
head -0.536523 -0.077591 8.04593
rclavicle 2.5842e-014 -3.49861e-014
rhumerus 54.5113 -20.1929 -77.4347
rradius 110.333
rwrist -61.7194
rhand -16.1536 64.7443
rfingers 7.12502
rthumb 10.052 35.0043
lclavicle 2.5842e-014 -3.49861e-014
lhumerus -53.3283 -16.2496 102.886
lradius 120.739
lwrist -25.7082
lhand 0.975027 48.2669
lfingers 7.12502
lthumb 26.5239 436.43
rfemur -24.558 7.62285 31.0761
rtibia 42.5758
rfoot -15.988 19.0599
rtoes 2.55628
lfemur -33.7133 6.22278 -16.6547
ltibia 77.8312
lfoot -1.70455 9.99552
ltoes -21.8007
1120
root -3.8973 15.7992 4.06821 -175.844 -56.0994 -171.773
lowerback 1.4874 0.275974 -2.30303
upperback -13.399 -1.11763 -1.80511
thorax -15.6639 -0.819293 -0.455661
lowerneck 0.0052203 -2.60777 -14.6196
upperneck -2.04026 -3.66353 20.3876
head 0.0965904 -1.99766 8.75086
rclavicle 3.97569e-016 -5.56597e-014
rhumerus 51.5569 -19.7704 -80.2231
rradius 111.729
rwrist -64.5975
rhand -16.3977 65.8494
rfingers 7.12502
rthumb 9.81646 36.0982
lclavicle 3.97569e-016 -5.56597e-014
lhumerus -55.7033 -13.5825 100.883
lradius 121.278
lwrist -25.5911
lhand 2.23567 48.9132
lfingers 7.12502
lthumb 27.73 436.888
rfemur -23.723 7.0194 30.1962
rtibia 41.7461
rfoot -14.1775 23.679
rtoes 2.87992
lfemur -33.5658 4.92598 -15.3969
ltibia 76.6877
lfoot -5.7667 12.4096
ltoes -17.7245
1121
root -3.99481 15.8565 4.16204 -174.67 -48.6501 -173.613
lowerback 1.65344 0.356741 -3.04373
upperback -13.2518 -1.14062 -1.78937
thorax -15.5867 -0.760417 -0.0143517
lowerneck 2.68879 -4.84822 -15.8224
upperneck -3.44265 -7.04235 21.8085
head -0.0361417 -3.89269 9.43764
rclavicle 5.96354e-015 4.6118e-014
rhumerus 48.4329 -19.5038 -83.3602
rradius 112.866
rwrist -66.6973
rhand -16.3441 66.7288
rfingers 7.12502
rthumb 9.86822 36.98
lclavicle 5.96354e-015 4.6118e-014
lhumerus -58.033 -11.2166 98.4931
lradius 121.749
lwrist -25.3873
lhand 3.47303 50.1069
lfingers 7.12502
lthumb 28.9125 437.886
rfemur -22.7001 6.98177 28.7751
rtibia 40.8732
rfoot -12.7062 27.1645
rtoes 3.56655
lfemur -32.7963 3.42809 -14.5333
ltibia 74.9244
lfoot -9.40864 14.2199
ltoes -16.0867
1122
root -4.10483 15.9725 4.2274 -173.885 -41.4035 -175.157
lowerback 1.47087 0.441217 -3.93299
upperback -12.9549 -1.13379 -1.79996
thorax -15.1002 -0.673797 0.470473
lowerneck 5.34994 -7.08185 -17.0778
upperneck -4.82699 -10.5219 23.1924
head -0.040266 -5.85034 10.1136
rclavicle 5.4467e-014 1.43125e-014
rhumerus 45.1769 -19.3505 -85.8518
rradius 114.004
rwrist -68
rhand -16.5816 67.4075
rfingers 7.12502
rthumb 9.639 37.648
lclavicle 5.4467e-014 1.43125e-014
lhumerus -60.1584 -8.92682 95.9379
lradius 122.091
lwrist -25.4882
lhand 4.76893 50.9294
lfingers 7.12502
lthumb 30.1495 438.49
rfemur -21.4131 8.43662 27.1742
rtibia 39.8701
rfoot -12.1241 28.8417
rtoes 3.06305
lfemur -31.2289 1.09568 -13.7254
ltibia 72.3048
lfoot -12.3631 15.3459
ltoes -13.1148
